<?xml version="1.0" encoding="UTF-8"?>
<svg xmlns="http://www.w3.org/2000/svg" version="1.1" viewBox="0 0 1939 2500">
  <defs>
    <style>
      .cls-1 {
        fill: #f8f1ef;
      }
    </style>
  </defs>
  <!-- Generator: Adobe Illustrator 28.7.1, SVG Export Plug-In . SVG Version: 1.2.0 Build 142)  -->
  <g>
    <g id="_图层_1" data-name="图层_1">
      <g id="_图层_1-2" data-name="_图层_1">
        <path class="cls-1" d="M1400.7,1386.4c-8.8-8.8-16.3-13.9-22.8-15.8-6.7-1.9-12.6-.5-17.2,4.1l-4.3,4.3c-45.3,45.3-98,80.8-156.7,105.7-60.8,25.7-125.3,38.7-191.9,38.7s-131.1-13-191.9-38.7c-58.7-24.8-111.4-60.4-156.7-105.7-47.2-47.2-82.7-99.9-105.7-156.7-22.4-55.4-29.7-97.1-32.1-110.8-.2-1.3-.4-2.3-.5-3-3.1-16.1-17.9-17.3-39.2-14-8.9,1.4-35.9,5.5-33.3,24.9v.4c7.2,45,19.8,89,37.6,131,28.5,67.5,69.4,128,121.4,180s112.6,92.8,180,121.4c69.8,29.5,144,44.5,220.5,44.5s150.6-15,220.5-44.6c67.4-28.5,128-69.4,180-121.4s3-2.9,4.5-4.6c5.7-6.2,10.7-17.1-12-39.8h-.2ZM1007,484.1c-73.1,0-150.8,14.8-207.9,39.5-6.1,2.4-9.8,7.3-10.6,14.2-.7,6.5,1,15.1,5.4,26.2,3.5,9.1,12.9,33.1,31.2,26.1,58.4-22.3,123-34.6,181.9-34.6s131.4,13.1,192.3,38.8c48.4,20.5,94,50,143.7,93,3.6,3.1,7.5,4.7,11.4,4.7,9.7,0,19-9.5,26.9-18.4,13.3-14.9,22.4-27.2,9.3-39.6-47.4-44.9-99.3-78.4-163.4-105.5-69.7-29.5-143.8-44.4-220.1-44.4h-.1ZM907.4,1101.9c0,8.3,7.6,15.5,12.2,19.8l1.4,1.4c7.7,7.6,15.1,11.5,21.9,11.5s9.1-2.7,10.3-3.8c3.4-3.2,42-42.3,45.7-46l43,42.9c4,4.5,8.3,6.7,13.4,6.9,6.9,0,14.4-4.1,22.2-12.1,18.6-19,9.3-29.2,4.8-34.1l-43.6-43.6,45.5-45.8c10-10.8,1.2-22.2-7.6-31-12.8-12.7-25-16-32.9-8.8l-45.2,45.3-45.7-45.7c-2.4-2.3-5.5-3.6-8.8-3.5-6.1,0-13.3,4.1-21.4,12.2-14.1,14.1-17.1,23.8-9.8,31.5l45.7,45.6-45.4,45.5c-3.7,3.7-5.6,7.7-5.6,11.9h-.1ZM617.5,1169.4c.3.8,6.7,18.6,10.5,27.5,20.5,48.6,49.9,92.2,87.4,129.6,37.4,37.4,81.1,66.8,129.6,87.4,50.3,21.3,103.7,32.1,158.8,32.1s108.5-10.8,158.8-32.1c48.6-20.5,92.2-50,129.6-87.4,37.5-37.4,66.9-81.1,87.4-129.6,21.3-50.3,32.1-103.7,32.1-158.8s-10.8-108.5-32.1-158.8c-20.5-48.6-50-92.2-87.4-129.6s-81.1-66.9-129.6-87.4c-50.3-21.3-103.7-32.1-158.8-32.1s-111.4,11.1-161,32.1c-39.7,16.8-106.8,60-146,100.5l-.2.2v-335.7h563.9c20.5-.2,20.5-28.9,20.5-38.3s0-38.1-20.6-38.3h-609.7c-16.6,0-26.9,13.8-26.9,26.6v472.5c0,15.2,19,26.3,36.6,30,34.5,7.4,42.4-3.7,50.9-15.3l1.1-1.5c12.9-19.1,53.1-59.7,53.5-60.1,62.8-62.8,146.8-97.4,236.5-97.4s173,34.6,235.9,97.4c63,63,97.8,146.6,97.8,235.2s-34.5,172.5-97.3,235.2c-61.9,61.9-148.4,97.4-237.3,97.4s-118.3-16-168.1-46.4l.2-287.3c0-38.3,16.6-80,44.5-111.4,31.8-36,75.7-55.8,123.5-55.8s89.6,17.6,121.8,49.5c32,31.7,49.6,73.9,49.6,118.9,0,96-75.5,171.2-171.9,171.2s-52.4-8.2-53.7-8.5c-19.5-5.8-27.7,21.2-30.5,30.1-10.5,34.2,5.3,41,8.5,42.1,31,9.6,51.4,11.4,78,11.4,136.1,0,246.7-110.7,246.7-246.9s-110.6-244.9-246.6-244.9-129.1,25.5-176.1,71.7c-44.8,44-70.4,102.7-70.4,161v1.4c-.2,7.3-.4,179.5-.4,236l-.3-.3c-25.6-28.3-50.8-71.7-67.6-115.9-6.6-17.4-21.4-14.3-41.7-8-8.8,2.7-35.8,11-29.8,30.5v.2h.3Z"/>
      </g>
    </g>
  </g>
</svg>