<?xml version="1.0" encoding="UTF-8"?>
<svg xmlns="http://www.w3.org/2000/svg" version="1.1" viewBox="0 0 2418.4 2418.4">
  <defs>
    <style>
      .cls-1 {
        fill: none;
      }

      .cls-2 {
        display: none;
        fill: #fff;
      }
    </style>
  </defs>
  <!-- Generator: Adobe Illustrator 28.7.1, SVG Export Plug-In . SVG Version: 1.2.0 Build 142)  -->
  <g>
    <g id="_图层_1" data-name="图层_1">
      <g id="_图层_2">
        <g>
          <path class="cls-2" d="M25.4,0h2418.4v2418.4H25.4V0h0ZM1690.7,1240.6c.5-4.7.6-8.2,1.2-11.6,11.2-67.7,16.9-135.8,15.7-204.5-.4-24.8-5.6-48.3-16-70.8-23.5-50.7-55.5-95.4-98-131.5-116.3-98.6-251.8-142.8-403.3-136.5-63.5,2.6-122.7,22.3-175.8,58.3-25,17-47.1,37.2-60.6,64.8-5,10.2-11.3,13.8-21.7,15.9-83.8,16.6-155.9,94-166.3,178.5-6.8,55.5-1.9,110.8,4,166,2.5,23.7,6.7,47.3,10.1,70.8-33.3,11.2-46.4,24.4-54.2,59-10.4,45.8-4.9,90.3,18.3,131.3,18.8,33.4,47,55.9,85.3,63.2,8.8,1.7,11.3,5.2,12.8,13.1,17,90.4,65.9,155.1,153.3,188.1,15,5.7,30.3,11,45.9,15,98.7,25.2,198.8,29.2,299.7,17.6,58.8-6.8,116.3-19.3,169.5-46.9,50-26,85.8-64.6,105-117.7,6.8-18.8,11.6-38.4,17-57.7,1.7-6,3.2-9.8,10.9-11,28.3-4.5,51.5-19.1,69.8-40.7,38.3-45.2,46.1-97.9,35-154.2-6.1-30.8-22.2-53.7-57.5-58.5h-.1Z"/>
          <path d="M1805.3,1266.4c44.4,6,64.7,35,72.4,73.6,14,70.9,4.2,137.2-44.1,194.1-23,27.2-52.2,45.7-87.9,51.2-9.7,1.5-11.6,6.3-13.7,13.8-6.8,24.3-12.8,49-21.4,72.6-24.2,66.8-69.2,115.5-132.2,148.1-67,34.7-139.3,50.5-213.3,59-126.9,14.6-253,9.6-377.2-22.2-19.6-5-38.8-11.7-57.8-18.9-109.9-41.5-171.4-123-193-236.8-1.9-9.9-5-14.3-16.1-16.5-48.2-9.2-83.7-37.5-107.4-79.5-29.2-51.7-36.1-107.6-23-165.3,9.8-43.6,26.3-60.2,68.2-74.3-4.3-29.6-9.4-59.3-12.7-89.1-7.4-69.5-13.6-139.2-5-208.9,13.1-106.5,103.8-203.8,209.3-224.7,13.1-2.6,21.1-7.3,27.3-20,16.9-34.6,44.7-60.2,76.3-81.6,66.8-45.3,141.4-70.1,221.3-73.4,190.7-7.9,361.2,47.7,507.6,171.8,53.5,45.4,93.8,101.7,123.4,165.5,13.1,28.3,19.6,57.9,20.1,89.1,1.5,86.5-5.7,172.2-19.8,257.4-.8,4.3-.9,8.7-1.5,14.6h0v.4ZM1239.5,1789c16.4-.8,37.2-1.3,57.9-2.9,58-4.4,115-13.8,169.7-34.8,70.4-27,117.4-75.6,136-149.9,7-27.9,13-56.1,17.7-84.5,11-64.8,15.9-130,9-195.8-2.3-22.1-8.4-42.9-19.5-61.5-23.4-39-34.2-81.3-33.9-126.3,0-13-5.7-18.8-15.9-24-50.4-26.1-104.7-36.8-160.6-41-60.9-4.6-122-7.1-182.6-14.3-73.9-8.7-146.8-24.5-216.1-53.3-3.3-1.4-7.9-1.6-11.3-.6-38.2,10.7-67.2,32.6-79.2,72-5.7,18.7-8.2,38.5-10,58.1-2.9,32.8-5.2,65.7-25.5,93.4-40,54.4-43.2,118-41.3,181.1,1.5,48.3,10.9,96.3,17.7,144.4,2.6,17.9,7.4,35.5,12,53.1,21.3,81.2,75.9,129.4,152.5,155,71,23.9,144.8,29.6,223.4,31.7h0ZM1687.2,1313.7c1.4.2,2.7.5,4.2.8,5-17,11.6-33.7,15-51,14.1-72.2,19.8-145.2,20.6-218.6.4-39.1-9-74.9-27.6-108.9-28.4-51.8-65.6-96.3-112.3-132.1-102.5-78.6-219.3-120.2-347.7-127.9-84.5-5-164.9,11.4-237.2,57.8-32.3,20.7-60.1,46.3-74.5,83.6-1.4,3.7-7,7.6-11.2,8.3-109.5,18-185.5,104.8-188.2,215.6-1.6,68.9,4.1,137.1,16,204.8,4.6,26.2,12.7,51.3,27.5,77.7.7-6.7.9-9.9,1.2-13.2,2-19.7,3-39.6,6.4-59.1,5.5-32,21.1-60.1,38.3-87.1,15.4-24.2,24.3-50.1,25.4-79,.5-16.3,2.4-32.7,4.6-48.9,7.9-58.4,36.1-101.6,93.1-122.8,2-.8,3.7-1.8,5.4-2.5-7.7-12-15.4-23.2-22.4-34.9-3.6-6-4.3-13.8,3.9-15.9,3.6-.9,11.4,3.8,13.2,7.8,10.7,24,28.6,39.5,53.1,48,12.6,4.4,25,9.5,37.8,13.3,110.2,32.3,222.9,48.7,337.6,51.8,64,1.6,127.3,8.2,187.9,30.9,46.1,17.2,86.5,42.5,117.4,81.6,3.9,4.9,9.6,10.6,2,16.6-7.1,5.5-11.5-.5-16-5.4-10.6-11.5-21.6-22.7-33.7-35.4-1.2,3.9-1.8,5.2-1.8,6.3,1.8,41.9,9.1,82.1,31.3,118.8,18.6,30.8,28.4,64.6,29.2,100.8,0,6.3.9,12.5,1.4,18.8v-.6ZM1670.2,1526.3c22.1-3.9,40.6-13.2,57-28.8,41.7-39.5,52.7-89.7,47.2-144.2-1.8-16.6-7.8-33.7-16.1-48.2-4.9-8.7-17.7-13.6-27.5-18.8-6.4-3.3-10.3.9-13,7.8-7.6,19.2-16.3,37.8-24.5,56.8-1.8,3.9-2.7,8.2-3.7,11.2,8.2-7.1,16.2-14.9,25.2-21.3,8-5.6,16.8-10.4,26-13.5,3.4-1.1,8.9,3.7,13.4,5.9-2.7,3.9-4.8,8.8-8.4,11.5-11,8.6-24.2,14.8-33.7,24.8-17.1,18.3-26.6,41-29.9,66-3.9,29.8-7.7,59.5-11.7,90.6v.2h-.3ZM768.1,1365.2c.9-.2,1.9-.5,2.7-.8-1.4-3.8-2.5-7.7-4.3-11.3-9.5-19.7-19.8-39.1-28.5-59.2-3.5-8.1-8-9.2-14.9-7-16.2,5-25.2,17.3-31.4,32.2-11.7,28.5-12.2,58.1-7,87.8,9.4,53.9,35,96.1,88.6,116.3,4.5,1.8,9.4,2.4,15.6,3.9-2.3-16.7-4.5-31.1-6.4-45.5-4.2-31.6-7.5-63.5-22.7-92.3-10.1-19.2-23.5-35.2-45-42.2-7.3-2.4-15.6-4.3-11.7-14.1,3.6-9.5,12.7-6.9,18.9-3.8,10.3,5,20.2,11.4,29.4,18.4,6.4,4.8,11.2,11.7,16.7,17.8v-.2h0Z"/>
          <path class="cls-2" d="M1243.2,1717.2c-78.9-2.1-152.8-7.8-224.2-31.6-77-25.7-131.7-73.7-153.1-154.5-4.6-17.5-9.5-35-12-52.9-6.9-47.9-16.4-95.8-17.8-143.9-1.9-62.9,1.4-126.4,41.5-180.5,20.4-27.6,22.7-60.4,25.6-93.1,1.8-19.5,4.3-39.3,10-57.9,12-39.1,41.2-61,79.5-71.7,3.5-1,8-.8,11.3.6,69.6,28.6,142.7,44.3,216.9,53.1,60.8,7.1,122.2,9.6,183.3,14.2,56.1,4.2,110.5,14.9,161.2,40.9,10.2,5.2,16.1,10.9,16,23.9-.3,44.9,10.5,87,34,125.9,11.2,18.6,17.3,39.3,19.6,61.3,7,65.5,2,130.5-9,195.1-4.8,28.3-10.8,56.4-17.8,84.2-18.7,74.1-65.9,122.5-136.5,149.4-54.9,20.9-112.1,30.3-170.3,34.7-20.8,1.6-41.6,2.1-58.1,2.9h0ZM1041.3,1163.8c.2-1.1.5-2.3.7-3.4,30.1,6.7,60.4,13.1,90.4,20.2,12.2,2.9,17.1,1.2,22-10.5,8.3-19.8,0-39.5-20.8-48-28.5-11.7-58.6-14.1-89-14.1-48.9,0-81.1,25.1-100.9,68.1-2.1,4.5-.2,10.8-.2,16.2,4.8-1.2,10.4-1.2,14.4-3.7,25.5-16.2,52.6-26.3,83.3-24.8h.1ZM1418.1,1109.2c0-1.2-.3-2.5-.4-3.7-25.5,5.8-51.6,9.9-76.4,17.8-21.5,6.8-28,27.2-19,48.1,3.8,8.8,9.5,12.9,19.5,9.9,13.5-4.1,27.1-8.2,40.9-11.2,49.3-10.9,96.9-10.5,139.7,21.5,2.6,1.9,9,3,10.2,1.5,2.2-2.8,3.1-7.7,2.5-11.4-.7-4.5-3.2-8.8-5.5-12.9-24.4-43.5-61-64.3-111.4-59.5h0ZM990.1,1296.9c0,35.9,22.5,64.8,54.4,69.8,29.3,4.6,58.1-14.9,67.4-46.6,7.9-26.7,3.4-51.4-15.2-72.6-16.8-19.1-41.8-25.3-64.1-16.8-25.2,9.6-42.4,36.5-42.4,66.2h-.1ZM1357.5,1297.6c4.5,13.2,7.1,27.5,14,39.3,23.3,39.9,77.6,40,102.5,1.1,18.2-28.4,14.6-67.1-8.5-91.7-16.9-18-41.8-24.1-63.6-15.4-24.7,9.9-41.5,36.4-44.4,66.7h0ZM1271.4,1337.3c0-5,.9-11.9-.3-18.3-.8-3.9-5-7.2-7.6-10.8-2.9,3.5-8.1,6.8-8.3,10.4-1.5,27-3.4,53.6,11.6,78.9,12.1,20.5,1.9,38-21.9,39.7-13,.9-26.3-3.1-39.5-3.8-4.1-.2-8.4,2.9-12.5,4.5,2.7,3.7,4.8,9.9,8.1,10.5,14.1,2.9,28.6,6.1,42.9,5.6,38.9-1.4,55.9-30.8,37.6-65.4-8.5-16-12.5-32-10.1-51.4h0ZM1236.7,1555.2c12.5-1.2,25.2-1.2,37.4-3.8,18-3.8,35.7-9,53.2-14.7,2.9-.9,4.2-6.9,6.3-10.5-3.9-1.6-7.6-3.8-11.6-4.5-2.4-.4-5.2,1.5-7.8,2.4-51.9,17.9-103.7,19.1-155.5-.7-2.2-.8-4.7-2.5-6.6-2-3.4.9-8.1,2.5-9,5-1,2.6,1.2,7.2,3.4,9.8,1.8,2.2,5.5,2.8,8.4,3.9,26.4,9.8,53.7,14.6,81.9,15.1h-.1Z"/>
          <path class="cls-2" d="M1654.7,1283.7c-.4-5.7-1.1-11.4-1.3-17.1-.7-33-9.6-63.8-26.6-91.9-20.2-33.4-26.9-70.1-28.5-108.3,0-1,.6-2.1,1.6-5.7,11,11.5,21,21.8,30.7,32.3,4.1,4.5,8.1,10,14.6,4.9,7-5.4,1.7-10.6-1.8-15.1-28.2-35.6-65.1-58.6-107.1-74.4-55.3-20.7-113-26.7-171.4-28.2-104.6-2.7-207.4-17.6-307.9-47.2-11.7-3.4-23-8.1-34.5-12.1-22.3-7.8-38.6-21.9-48.4-43.8-1.6-3.6-8.7-7.9-12-7.1-7.4,1.9-6.9,8.9-3.6,14.5,6.3,10.7,13.4,21,20.4,31.8-1.4.7-3.1,1.6-4.9,2.3-52,19.3-77.7,58.7-84.9,112-2,14.8-3.6,29.7-4.2,44.6-1,26.3-9.2,49.9-23.2,72-15.6,24.6-29.8,50.2-34.9,79.4-3.1,17.8-3.9,35.9-5.8,53.9-.3,2.9-.5,5.9-1.1,12-13.5-24.1-20.9-47-25.1-70.9-10.9-61.8-16.1-124-14.6-186.8,2.4-101,71.7-180.2,171.6-196.6,3.8-.6,8.9-4.2,10.2-7.6,13.1-34.1,38.4-57.3,67.9-76.2,66-42.3,139.2-57.3,216.3-52.7,117.1,7,223.6,44.9,317.1,116.6,42.6,32.7,76.5,73.3,102.4,120.5,17,31,25.6,63.7,25.2,99.3-.7,67.1-5.9,133.6-18.8,199.4-3.1,15.8-9,31-13.7,46.5-1.3-.2-2.5-.5-3.8-.7v.4h.1ZM1283.1,762.2c-10.7.7-25.6,1.1-40.4,3-3.2.4-5.9,5.6-8.8,8.7,3.3,2.5,6.5,5.4,10.1,7.4,1.4.8,3.8-.2,5.8-.3,133.6-8.3,251,27.6,345.2,126.9,2.8,3,9.1,2.7,13.7,3.9-.6-4.8.6-11.2-2-14-11.9-13-24.1-26.1-37.7-37.3-81.7-67.3-176.9-96.5-285.9-98.2h0ZM1308.3,833.8c-5.3,0-10-1.1-13.9.3-4.4,1.6-8,5.3-11.9,8.1,3.9,2.8,7.6,7.6,11.8,8.2,12.8,1.6,25.9,1,38.8,2.2,84.2,8,157.9,39.7,219.2,98.8,5.1,4.9,10.1,15.9,18.7,7.2,8.4-8.4-2-14-7.1-19-71.6-69.2-158.3-101.7-255.7-105.8h0Z"/>
          <path class="cls-2" d="M1639.2,1477.6c3.6-28.3,7.1-55.5,10.7-82.6,3-22.8,11.7-43.6,27.3-60.2,8.5-9.1,20.6-14.8,30.7-22.6,3.3-2.6,5.2-7,7.7-10.5-4.1-2-9.1-6.4-12.2-5.4-8.4,2.8-16.4,7.2-23.7,12.3-8.2,5.8-15.4,12.9-23,19.4.9-2.8,1.8-6.6,3.4-10.2,7.4-17.3,15.4-34.4,22.3-51.8,2.5-6.3,6.1-10.1,11.9-7.1,9.1,4.7,20.6,9.1,25.1,17.1,7.5,13.2,13.1,28.8,14.7,44,5.1,49.8-5.1,95.5-43,131.5-15.1,14.3-31.8,22.7-52,26.3v-.2h0Z"/>
          <path class="cls-2" d="M816.5,1330.7c-5-5.5-9.4-11.7-15.2-16.2-8.3-6.4-17.3-12.2-26.8-16.8-5.7-2.8-13.9-5.2-17.2,3.5-3.4,9,4,10.7,10.7,12.9,19.6,6.4,31.8,21,41,38.5,13.9,26.3,16.9,55.4,20.7,84.2,1.7,13.2,3.7,26.3,5.8,41.5-5.7-1.4-10.1-2.1-14.2-3.6-48.9-18.5-72.2-56.9-80.8-106.1-4.7-27.1-4.3-54.1,6.4-80.1,5.6-13.6,13.8-24.8,28.6-29.4,6.3-2,10.4-1,13.6,6.4,8,18.3,17.3,36,26,54,1.6,3.3,2.6,6.9,3.9,10.3-.8.2-1.7.5-2.5.7v.2Z"/>
          <g>
            <path d="M1011.7,1196.4c-35.9-1.8-67.6,10.1-97.4,29-4.7,2.9-11.2,2.9-16.8,4.3,0-6.3-2.2-13.7.2-18.9,23-50.3,60.8-79.6,118-79.6s70.7,2.8,104.1,16.5c24.3,9.9,34,33,24.3,56.1-5.7,13.7-11.5,15.7-25.7,12.3M928.9,1194c66.8-28.9,129.7-14,192.2,3.5,5.5-17.2,3.3-24.7-12-30.3-42.2-15.4-85.7-20.9-129.9-10.4-20.2,4.9-35.5,17.8-50.3,37.1h0Z"/>
            <path d="M1422.3,1137.5c8.2-1.3,18.8-1.9,26.8-1.8,2.2-.3,43.6,4.6,45.8,5,17.8,3.8,59.6,17.2,85,62.4,2.7,4.8,5.6,9.8,6.4,15.1.7,4.3-.4,10.2-2.9,13.3-1.3,1.6-8.9.5-11.9-1.8-50-37.4-105.8-37.9-163.4-25.1-16.1,3.6-32,8.3-47.8,13.1-5.2,1.6-9.5,1.5-12.9,0-6.2-2.7-8.8-9-9.9-11.5-5.1-12.3-10.4-34.5,23.1-53.1,0,0,31-14,61.7-15.6h0ZM1357.1,1197.7c62.4-18.1,125.4-31.9,190.1-4.8-9.9-17.2-30.6-32.5-53.7-37.1-43.4-8.7-85.9-3.5-127,12.4-14.1,5.5-16.3,13.7-9.6,29.4h.2Z"/>
            <path d="M1081.4,1279.3c-23.6-27-59.1-35.8-90.6-23.7-35.6,13.6-59.9,51.4-59.9,93.6h0c0,50.7,31.8,91.6,76.9,98.6,41.4,6.5,82-21.1,95.3-65.9,11.2-37.7,4.8-72.6-21.5-102.6h-.1ZM1032.6,1416.2c-26.4,0-47.8-21.4-47.8-47.8s21.4-47.8,47.8-47.8,47.8,21.4,47.8,47.8-21.4,47.8-47.8,47.8Z"/>
            <path d="M1533.5,1277.9c-24-25.6-59.2-34.1-89.9-21.8-34.9,14-58.7,51.3-62.8,94.3,2.1,26.6,6.3,35.8,19.8,55.5,32.9,56.2,109.7,56.5,144.9,1.6,25.7-40.1,20.6-94.8-12-129.6ZM1480.7,1419.4c-26.4,0-47.8-21.4-47.8-47.8s21.4-47.8,47.8-47.8,47.8,21.4,47.8,47.8-21.4,47.8-47.8,47.8Z"/>
            <path d="M1279.8,1398.4c-2.8,22.7,1.9,41.4,11.8,60.1,21.4,40.5,1.5,74.8-44,76.5-16.6.6-33.7-3.2-50.2-6.5-3.9-.8-23.9-7.4-27-11.6,4.9-1.9,6.7-14.4,11.3-14.1,15.4.9,27.5,3,42.7,1.8,27.8-2,42.3-11.9,28-35.8-17.5-29.7-21.2-63.4-19.4-94.8.2-4.2,37-16.8,40.4-20.8,3,4.2,5,19.4,6,24.1,1.5,7.5.4,15.6.4,21.4h0v-.3Z"/>
            <path d="M1138.8,1655.6s-4.2-1.1-7.5-3.8c-8.5-7.1-8.3-21.2-4.6-31.6,1.1-2.9,6.7-4.8,10.5-5.8,2.2-.6,5.3,1.3,7.7,2.3,60.5,23.2,121.1,21.7,181.8.8,3-1.1,6.3-3.3,9.1-2.8,4.7.8,9.1,3.4,13.6,5.3-.9,1.5-1.5,5.8-2.2,10.9-1,7.5.2,11-2.1,15.1-2.2,3.9-5.8,5.6-7.7,6.5-102.7,15.5-198.7,3.1-198.7,3.1h0Z"/>
          </g>
          <path d="M1289.3,742.3c109,1.8,204.1,30.9,285.9,98.2,13.6,11.2,25.7,24.3,37.7,37.3,2.6,2.9,1.5,9.3,2,14-4.6-1.2-20.6,11.7-23.4,8.8-94.3-99.3-196.8-129-330.4-120.8-2,0-16.8-9.3-18.2-10.1-3.6-2,.6-13.4-2.8-15.9,2.9-3,5.6-8.3,8.8-8.7,14.8-1.8,29.7-2.3,40.4-3h0v.2Z"/>
          <path d="M1274,807.1c104.9,4.7,198.2,41.8,275.4,120.5,5.5,5.6,16.7,12,7.6,21.6-9.3,9.9-34.7,10.6-40.2,5-66-67.3-131.8-103-222.5-112.1-13.9-1.4-26.8-6.3-35.5-13.7-2.7-.3-4.9-4.8-7.4-7.1s-2.5-6.8.3-9.2,4.7-3.7,7.4-4.7c4.1-1.6,9.2-.3,15-.3h-.1Z"/>
          <path class="cls-2" d="M972.8,1160.9c12.6-16.5,25.7-27.6,43-31.7,37.9-9.1,75-4.4,111.1,8.9,13.1,4.8,15,11.1,10.3,25.9-53.5-15-107.3-27.8-164.4-3h0Z"/>
          <path class="cls-2" d="M1339,1164.1c-5.7-13.4-3.9-20.4,8.2-25.1,35.1-13.7,71.5-18,108.6-10.6,19.7,3.9,37.4,17,45.9,31.7-55.5-23.2-109.2-11.4-162.6,4.1h0Z"/>
          <path class="cls-2" d="M1007.1,1297.4v-3.5c1.6-27.1,21.2-49.2,44.3-49.9,23.2-.8,42.8,18.5,46.5,46,.6,4.2.7,8.7.2,12.9-2.9,28.3-23.7,49-47.5,47.6-23.8-1.3-43.7-25.5-43.6-53.1h.1Z"/>
          <path class="cls-2" d="M1377.3,1297.4c0-30.3,22.1-55.1,47.7-53.4,26.1,1.7,47.4,31.3,43.5,60.3-3.7,27.6-24.5,47.7-47.8,46.3-24.2-1.5-43.4-24.9-43.4-53.1h0Z"/>
        </g>
        <circle class="cls-1" cx="995.4" cy="1368.7" r="44.6"/>
        <circle class="cls-1" cx="1449.7" cy="1391.3" r="44.6"/>
      </g>
    </g>
  </g>
</svg>